{"title":"Glee S02E12 HDTV XviD-LOL [TheCloon].avi","uid":6162062,"size":366247936,"categoryP":"video","categoryS":"tv_shows","magnet":"?xt=urn:btih:d88bcde9cd1f2399aeba762374cc51300dac2bcc&amp;dn=Glee+S02E12+HDTV+XviD-LOL+%5BTheCloon%5D.avi&amp;tr=udp%3A%2F%2Ftracker.openbittorrent.com%3A80&amp;tr=udp%3A%2F%2Fopen.demonii.com%3A1337&amp;tr=udp%3A%2F%2Ftracker.coppersurfer.tk%3A6969&amp;tr=udp%3A%2F%2Fexodus.desync.com%3A6969","seeders":3,"leechers":0,"uploader":"TheCloon","files":-1,"time":1297252479,"description":"### TheCloon ###\n\n\n###\nGlee S02E12 HDTV XviD-LOL [TheCloon].avi\n###\n\n\n### Plot ###\nLove is in the air at McKinley High when the glee club sets up a kissing booth for Valentine's Day. Things don't go as planned, however, and hearts end up getting broken.\n\n[CODE]\nFormat                           : AVI\nFormat/Info                      : Audio Video Interleave\nFile size                        : 349 MiB\nDuration                         : 43mn 43s\nOverall bit rate                 : 1 117 Kbps\nWriting application              : VirtualDubMod 1.5.10.2 (build 2540/release)\nWriting library                  : VirtualDubMod build 2540/release\n\nVideo\nID                               : 0\nFormat                           : MPEG-4 Visual\nFormat profile                   : Advanced Simple@L5\nFormat settings, BVOP            : 2\nFormat settings, QPel            : No\nFormat settings, GMC             : No warppoints\nFormat settings, Matrix          : Default (H.263)\nCodec ID                         : XVID\nCodec ID/Hint                    : XviD\nDuration                         : 43mn 43s\nBit rate                         : 973 Kbps\nWidth                            : 624 pixels\nHeight                           : 352 pixels\nDisplay aspect ratio             : 16:9\nFrame rate                       : 23.976 fps\nColor space                      : YUV\nChroma subsampling               : 4:2:0\nBit depth                        : 8 bits\nScan type                        : Progressive\nCompression mode                 : Lossy\nBits/(Pixel*Frame)               : 0.185\nStream size                      : 304 MiB (87%)\nWriting library                  : XviD 1.2.1 (UTC 2008-12-04)\n\nAudio\nID                               : 1\nFormat                           : MPEG Audio\nFormat version                   : Version 1\nFormat profile                   : Layer 3\nMode                             : Joint stereo\nMode extension                   : MS Stereo\nCodec ID                         : 55\nCodec ID/Hint                    : MP3\nDuration                         : 43mn 43s\nBit rate mode                    : Variable\nBit rate                         : 128 Kbps\nChannel(s)                       : 2 channels\nSampling rate                    : 48.0 KHz\nCompression mode                 : Lossy\nStream size                      : 41.0 MiB (12%)\nAlignment                        : Aligned on interleaves\nInterleave, duration             : 24 ms (0.58 video frame)\nInterleave, preload duration     : 518 ms\nWriting library                  : LAME3.90.\nEncoding settings                : -m j -V 4 -q 2 -lowpass 17.6 --abr 128\n[/CODE]\n\n[SCREENS] &lt;a href=&quot;\nhttp://bayimg.com/MaDeDaadm&quot; rel=&quot;nofollow&quot; target=&quot;_NEW&quot;&gt;\nhttp://bayimg.com/MaDeDaadm&lt;/a&gt;\n\n[TVRAGE] &lt;a href=&quot;\nhttp://www.tvrage.com/glee&quot; rel=&quot;nofollow&quot; target=&quot;_NEW&quot;&gt;\nhttp://www.tvrage.com/glee&lt;/a&gt;","torrent":{"xt":"urn:btih:d88bcde9cd1f2399aeba762374cc51300dac2bcc","amp;dn":"Glee+S02E12+HDTV+XviD-LOL+%5BTheCloon%5D.avi","amp;tr":["udp%3A%2F%2Ftracker.openbittorrent.com%3A80","udp%3A%2F%2Fopen.demonii.com%3A1337","udp%3A%2F%2Ftracker.coppersurfer.tk%3A6969","udp%3A%2F%2Fexodus.desync.com%3A6969"],"infoHash":"d88bcde9cd1f2399aeba762374cc51300dac2bcc","infoHashBuffer":{"type":"Buffer","data":[216,139,205,233,205,31,35,153,174,186,118,35,116,204,81,48,13,172,43,204]},"announce":[],"urlList":[]}}